<?xml version="1.0" standalone="no"?>
<!DOCTYPE svg PUBLIC "-//W3C//DTD SVG 20010904//EN"
 "http://www.w3.org/TR/2001/REC-SVG-20010904/DTD/svg10.dtd">
<svg version="1.0" xmlns="http://www.w3.org/2000/svg"
 width="500.000000pt" height="500.000000pt" viewBox="0 0 500.000000 500.000000"
 preserveAspectRatio="xMidYMid meet">

<g transform="translate(0.000000,500.000000) scale(0.100000,-0.100000)"
fill="#000000" stroke="none">
<path d="M2814 4630 c-33 -13 -72 -66 -79 -109 l-7 -40 -901 -3 c-993 -3 -927
1 -989 -65 -60 -62 -58 -40 -58 -777 l0 -674 -34 -34 c-63 -63 -56 -158 13
-205 32 -22 44 -23 191 -23 l157 0 7 -37 c8 -52 40 -110 88 -160 l41 -41 -229
-4 c-219 -4 -233 -5 -314 -32 -158 -53 -253 -109 -369 -220 -122 -118 -193
-232 -246 -396 -37 -114 -46 -323 -20 -451 73 -363 356 -645 725 -721 53 -10
379 -13 1745 -13 l1680 0 85 23 c226 60 418 197 546 389 60 89 92 160 126 280
19 66 23 101 22 228 -1 173 -17 250 -83 389 -118 253 -336 433 -610 502 -86
22 -113 24 -342 24 l-249 0 45 62 c28 37 52 85 62 120 l16 58 170 0 169 0 39
39 c33 33 39 45 39 83 0 48 -36 112 -69 123 -18 6 -20 18 -23 213 l-3 207 -30
53 c-16 29 -165 253 -330 499 -298 443 -362 524 -421 539 -20 5 -24 12 -24 46
0 24 -9 55 -21 75 -37 59 -54 63 -286 62 -114 0 -217 -4 -229 -9z m440 -89
c10 -11 16 -28 14 -38 -3 -17 -20 -18 -226 -21 l-222 -2 0 28 c0 50 9 52 220
52 182 0 198 -1 214 -19z m101 -168 c46 -24 78 -57 124 -125 l32 -48 -88 -2
c-48 0 -171 -2 -273 -2 -166 -1 -188 -3 -219 -21 -29 -17 -35 -18 -39 -5 -3 8
-24 34 -47 56 -54 53 -64 54 -395 51 -250 -3 -256 -3 -298 -27 -74 -41 -72
-32 -72 -467 0 -213 -3 -486 -7 -605 l-6 -218 -121 1 -121 0 -30 41 c-33 45
-137 112 -199 129 -68 18 -165 14 -231 -11 -71 -27 -157 -88 -181 -130 l-18
-30 -153 0 -153 0 0 674 0 673 22 28 c12 15 35 36 52 46 30 19 68 19 1206 17
l1175 -3 40 -22z m-575 -189 c62 -37 60 -15 60 -648 l0 -576 -345 0 -345 0 0
595 0 596 25 24 24 25 277 0 c237 0 280 -2 304 -16z m934 -296 l157 -233 -78
-3 c-67 -3 -80 0 -93 16 -8 11 -64 88 -124 171 -60 84 -120 161 -134 172 -22
17 -41 19 -176 19 -169 0 -197 -9 -236 -72 -19 -32 -20 -52 -20 -444 0 -448 0
-444 55 -430 l25 6 0 240 0 240 293 2 c160 2 350 3 420 3 l128 0 60 -92 c90
-139 89 -136 89 -343 l0 -180 -151 0 -150 0 -54 58 c-153 166 -409 166 -559 0
l-53 -58 -96 0 -97 0 0 541 c0 564 0 564 44 601 19 16 49 17 307 18 l287 0
156 -232z m-400 66 l77 -7 103 -136 c56 -75 106 -142 110 -148 6 -10 -48 -13
-253 -13 l-261 0 0 126 c0 69 5 134 11 145 20 38 66 45 213 33z m-1735 -908
c112 -30 196 -119 216 -230 l7 -36 -60 0 -59 0 -17 45 c-28 73 -106 125 -186
125 -66 -1 -164 -79 -177 -141 -5 -28 -8 -29 -60 -29 l-55 0 7 43 c19 109 108
198 225 223 74 16 96 16 159 0z m2006 -21 c68 -33 128 -104 150 -177 8 -29 15
-55 15 -60 0 -4 -27 -8 -60 -8 -54 0 -60 2 -60 20 0 55 -64 122 -132 141 -83
22 -181 -21 -217 -94 -12 -24 -21 -49 -21 -55 0 -8 -20 -12 -60 -12 l-60 0 6
28 c3 15 8 36 11 47 3 11 21 44 40 72 83 124 250 166 388 98z m-2465 -157 c0
-7 -3 -30 -6 -50 l-7 -38 -154 0 c-153 0 -153 0 -165 25 -9 19 -8 29 6 50 16
25 17 25 171 25 117 0 155 -3 155 -12z m1952 7 c3 -3 1 -26 -5 -50 l-10 -45
-589 0 c-568 0 -588 1 -588 19 0 10 -3 33 -6 50 l-6 31 599 0 c330 0 602 -2
605 -5z m1076 -11 c24 -17 29 -53 10 -72 -8 -8 -60 -12 -170 -12 -148 0 -158
1 -158 19 0 10 -3 33 -6 50 l-6 31 154 0 c123 0 158 -3 176 -16z m-2583 -24
c30 -29 40 -70 25 -114 -15 -47 -42 -68 -93 -73 -38 -5 -48 -1 -77 24 -25 22
-33 39 -37 76 -5 43 -3 49 31 83 34 34 40 36 82 31 28 -3 54 -13 69 -27z
m1948 10 c36 -28 52 -81 37 -124 -15 -47 -42 -68 -94 -73 -42 -5 -48 -3 -81
30 -29 29 -35 42 -35 77 0 88 106 143 173 90z m-2198 -169 c9 -30 76 -90 113
-102 78 -26 176 9 219 77 l28 43 62 1 63 0 -17 -42 c-65 -167 -220 -243 -390
-193 -83 25 -176 123 -197 208 l-6 27 59 0 c50 0 61 -3 66 -19z m1745 -3 c0
-39 49 -131 93 -175 l41 -43 -717 0 c-394 0 -717 3 -717 6 0 4 14 22 31 42 36
40 79 127 79 158 0 11 3 24 7 27 3 4 271 7 595 7 l588 0 0 -22z m221 -15 c69
-106 214 -123 299 -34 19 20 40 44 45 54 8 15 20 18 66 15 l56 -3 -15 -48
c-19 -58 -88 -139 -146 -170 -61 -32 -213 -32 -274 1 -83 44 -141 114 -167
200 -6 21 -4 22 53 22 57 0 59 -1 83 -37z m974 -268 c320 -66 579 -311 667
-631 18 -65 22 -105 21 -224 0 -128 -3 -155 -26 -233 -80 -260 -253 -458 -497
-564 -167 -73 -34 -68 -1900 -68 l-1675 0 -85 22 c-47 12 -130 45 -185 73
-174 87 -306 221 -390 393 -69 145 -80 196 -79 387 0 158 1 169 32 260 76 227
232 406 447 512 77 39 148 64 216 77 24 5 795 9 1712 10 1465 1 1677 -1 1742
-14z"/>
<path d="M1305 4205 c-23 -22 -25 -32 -25 -115 l0 -90 -89 0 c-74 0 -92 -3
-115 -21 -26 -20 -26 -21 -26 -158 0 -174 -2 -171 133 -171 l97 0 0 -94 c0
-93 0 -95 31 -120 29 -24 37 -26 134 -26 169 0 184 12 185 148 l0 92 99 0 c96
0 100 1 120 26 19 24 21 40 21 151 0 118 -1 125 -25 148 -22 23 -32 25 -120
25 l-95 0 0 89 c0 74 -3 92 -21 115 -20 26 -22 26 -150 26 -125 0 -131 -1
-154 -25z m251 -155 c0 -58 4 -111 8 -118 5 -8 42 -12 117 -12 l109 0 0 -95 0
-95 -104 0 c-137 0 -136 1 -136 -136 l0 -104 -95 0 -95 0 0 104 c0 137 1 136
-136 136 l-104 0 0 95 0 95 108 0 c71 0 112 4 120 12 8 8 12 49 12 120 l0 109
98 -3 97 -3 1 -105z"/>
<path d="M1843 3153 c-24 -5 -37 -31 -27 -56 7 -19 96 -33 148 -23 46 9 58 42
26 68 -22 17 -88 22 -147 11z"/>
<path d="M2304 4066 c-3 -8 -4 -23 -2 -33 3 -17 18 -18 193 -18 l190 0 0 30 0
30 -188 3 c-157 2 -188 0 -193 -12z"/>
<path d="M2318 3939 c-10 -5 -18 -21 -18 -34 l0 -25 156 0 155 0 -3 27 c-2 19
-10 29 -28 34 -39 11 -243 9 -262 -2z"/>
<path d="M2318 3789 c-11 -6 -18 -22 -18 -39 0 -24 5 -31 27 -36 28 -7 56 17
51 45 -5 23 -41 41 -60 30z"/>
<path d="M2632 3784 c-38 -26 -22 -74 25 -74 24 0 48 33 39 55 -10 26 -41 35
-64 19z"/>
<path d="M2462 3778 c-7 -7 -12 -19 -12 -28 0 -40 61 -55 80 -21 13 25 13 27
-6 45 -18 19 -45 21 -62 4z"/>
<path d="M2307 3634 c-13 -13 -7 -52 9 -58 24 -9 357 -7 372 3 8 4 12 19 10
32 l-3 24 -191 3 c-104 1 -193 -1 -197 -4z"/>
<path d="M2516 3474 c-20 -19 -20 -38 -2 -54 23 -19 61 -8 64 18 7 44 -32 67
-62 36z"/>
<path d="M2641 3476 c-7 -8 -11 -25 -9 -38 2 -18 9 -23 32 -23 36 0 56 27 40
53 -14 22 -48 27 -63 8z"/>
<path d="M3192 3481 c-8 -5 -12 -21 -10 -37 2 -24 8 -29 35 -32 28 -3 33 0 39
24 10 39 -30 67 -64 45z"/>
<path d="M3340 3475 c-19 -23 -4 -65 23 -65 29 0 47 18 47 46 0 33 -47 46 -70
19z"/>
<path d="M3800 3151 c-31 -9 -40 -49 -14 -68 25 -19 134 -17 162 3 27 19 28
28 2 54 -15 15 -32 20 -72 19 -29 -1 -64 -4 -78 -8z"/>
<path d="M1045 2185 c-223 -49 -389 -176 -486 -370 -48 -97 -69 -190 -69 -310
0 -119 21 -209 71 -314 34 -71 57 -101 129 -172 95 -95 191 -151 320 -186 101
-28 348 -25 457 5 95 25 175 59 251 105 l52 31 0 278 0 278 -140 0 -140 0 0
-199 0 -199 -49 -20 c-121 -53 -286 -49 -406 8 -75 36 -156 118 -190 193 -53
115 -51 275 5 394 115 247 465 308 699 122 l51 -41 95 88 c52 49 95 91 95 95
0 4 -26 31 -58 61 -72 66 -179 121 -292 148 -100 24 -299 26 -395 5z"/>
<path d="M3760 2184 c-88 -19 -199 -75 -255 -129 -140 -137 -152 -375 -25
-505 69 -71 159 -110 390 -170 226 -59 277 -83 299 -146 13 -37 12 -44 -5 -80
-30 -60 -93 -87 -215 -92 -153 -6 -302 30 -423 103 -57 34 -57 34 -65 12 -5
-12 -28 -62 -50 -111 -23 -49 -40 -95 -37 -102 9 -22 108 -73 201 -103 127
-41 233 -54 388 -49 108 4 146 10 210 32 207 70 311 199 311 386 0 128 -42
205 -149 279 -55 38 -131 65 -329 117 -203 53 -269 81 -290 123 -32 62 -8 127
63 169 41 24 58 27 152 30 122 5 228 -17 338 -68 35 -17 65 -29 66 -28 1 3 82
200 91 223 9 23 -148 86 -274 111 -93 18 -306 17 -392 -2z"/>
<path d="M2020 2055 l0 -125 215 0 215 0 0 -550 0 -550 155 0 155 0 2 548 3
547 218 3 217 2 0 125 0 125 -590 0 -590 0 0 -125z"/>
</g>
</svg>
