<?xml version="1.0" encoding="UTF-8"?>
<svg version="1.1" viewBox="0 0 2000 2000" width="1280" height="1280" xmlns="http://www.w3.org/2000/svg">
<path transform="translate(222,1008)" d="m0 0h1687l1 1v585l-3 16-5 13-7 12-12 13-8 7-8 5-14 5-15 3-13 1h-1671l-2-5v-580l2-13 6-16 6-11 10-13 9-8 11-7 15-6zm288 82-24 2-21 3-25 6-16 6-16 8-10 6-11 8-10 9-8 8-10 13-8 14-6 17-5 25v31l4 23 6 17 8 14 10 13 13 13 12 9 15 9 22 11 28 11 37 13 32 11 18 8 11 7 6 10 1 4v8l-4 10-4 6-8 7-11 5-13 3-9 1h-34l-25-4-17-5-21-9-20-11-15-10-5 1-11 8-9 8-10 14-5 12-2 8v20l5 16 7 11 9 10 8 7 15 9 16 7 21 7 22 5 23 3 11 1h53l32-4 28-6 23-8 21-10 13-9 11-9 15-15 7-10 6-10 8-20 3-13 2-17v-25l-2-18-6-21-8-16-7-11-11-12-12-11-15-11-17-10-23-12-28-11-43-14-24-8-17-8-7-8-2-5v-9l4-9 4-5 11-7 13-4 16-2h31l20 2 20 4 24 8 20 9 7 1 12-12 8-10 5-10 4-16v-17l-2-9-7-14-8-10-12-10-17-9-17-6-20-5-36-4-17-1zm823 10-23 3-13 4-11 6-14 10-5 4-3 6-3 52-2 25-5 92-4 78-3 56-2 36-2 29v20l3 12 6 10 8 7 13 6 12 3 21 2h16l22-2 14-3 10-4 2-2 1-11 3-89 3-154 1-22 1-9v-9h3l3 11 11 38 15 47 15 45 10 33 7 14 9 8 12 5 13 3 8 1h40l21-5 12-6 6-5 5-10 17-59 13-41 11-36 11-38 3-3 3 92 1 65 4 83 2 25 3 11 6 9 8 7 16 7 15 3 11 1h22l17-2 15-4 12-5 4-4v-25l-3-48-6-76-7-82-7-77-4-38-4-36-4-25-4-10-9-10-10-7-14-6-12-3-25-3h-28l-24 3-18 5-10 5-6 12-13 37-13 42-14 45-13 46-10 35-3 3-6-18-12-41-14-43-14-45-12-33-8-16-7-10-9-9-13-8-13-5-13-3-15-2zm-474 3-10 2-14 7-10 8-8 8-8 15-4 17v340l4 16 7 14 11 12 14 9 15 5 5 1 14 1h192l35-1 12-4 11-7 8-11 3-10 1-8v-26l-2-14-5-15-5-8-7-1h-184l-1-42v-25l1-9h107l39-1 14-5 8-6 4-5 5-12 3-13v-21l-4-18-5-14-5-8h-167l1-67 165-1 9-2 12-7 8-9 4-10 2-10 1-10v-9l-3-19-4-15-6-12z" fill="#B7B8BA"/>
<path transform="translate(856,82)" d="m0 0h58l32 2 30 3 25 4 25 6 29 9 27 11 20 10 24 16 14 11 12 11 10 10 9 11 8 10 11 18 12 25 8 24 5 24 2 22v39l-2 18-6 24-8 21-11 20-12 17-11 12-7 8-9 9-11 9-10 8-22 14-10 5 30 15 18 10 17 12 11 10 8 7 11 12 12 16 11 19 10 25 6 20 4 20 2 20v47l-3 21-5 21-10 28-8 16-7 12-10 14-11 14-9 10-12 12-11 9-13 10-22 14-24 13-19 8-18 7-30 9-24 6-27 5-37 4-39 2h-30l-44-2-47-5-32-6-26-7-24-8-23-10-16-9-17-12-13-11-11-12-9-13-8-16-4-14-2-14v-15l3-20 5-17 7-14 12-17 9-10 10-10 16-11 6 2 20 12 18 10 27 14 19 8 23 7 30 6 35 3h42l29-3 25-6 20-8 14-9 12-10 10-14 6-13 4-14 1-7v-11l-2-15-5-16-6-11-7-9-13-10-14-7-19-5-9-2-23-2-155-1-4-4-8-16-7-19-5-21-2-25v-16l2-27 3-15 6-19 8-16 5-7 2-1 144-1 17-2 22-5 16-7 10-7 5-4 7-10 6-12 4-14 1-8v-11l-2-14-5-13-7-11-9-10-7-6-14-8-14-6-21-6-32-4h-39l-40 4-20 4-26 7-23 8-25 12-18 11-7-4-12-11-8-8-10-13-9-15-7-21-2-10-1-20 1-16 6-21 5-12 8-12 9-11 8-7 16-12 21-11 26-10 27-8 28-6 36-5z" fill="#FDFDFD"/>
<path transform="translate(1551,88)" d="m0 0h29l28 1 27 3 30 5 24 6 26 8 28 11 17 8 24 14 12 8 16 12 10 9 8 7 11 11 9 11 14 19 12 22 8 19 6 16 5 19 4 22 1 15v29l-2 23-5 25-6 20-10 27-13 27-13 21-10 15-13 17-14 17-15 16-26 26h-2l-1 3-8 7-14 12-14 11-13 11-17 13-13 11-14 11-16 13-11 9-13 10-14 11-11 9-16 13-14 11-13 11-10 8-7 6 17 1h292l25 1 3 4 10 24 7 24 4 25v30l-4 23-5 15-5 9-8 10-13 10-10 5-13 4-15 2-490 1-10-2-12-9-11-10-9-11-9-13-9-16-7-19-5-21-2-27 1-23 3-21 6-21 7-16 10-16 14-19 11-12 15-14 11-9 15-13 14-12 11-9 14-12 10-9 11-9 13-11 15-13 14-12 10-9 10-8 10-9 11-9 15-13 13-11 11-9 7-7 8-7 13-12 27-27 7-8 9-10 11-14 12-18 9-19 4-13 1-6v-27l-3-12-6-12-10-13-11-9-15-9-15-6-18-5-21-3h-45l-26 3-27 6-27 9-24 11-25 13-20 11-9-6-16-16-12-16-8-14-6-18-3-16-1-8v-13l4-27 7-20 9-15 9-11 12-12 17-12 16-9 24-10 25-8 30-7 26-4 15-2 13-1z" fill="#FDFDFD"/>
<path transform="translate(363,92)" d="m0 0h23l28 1 18 2 17 4 15 6 15 8 11 8 10 9 11 14 11 19 6 17 3 14 1 13v749l-5 2-35 6-37 5h-63l-30-5-15-5-14-7-9-7-6-5-9-12-8-16-4-13-3-19-1-13v-536l-67 21-49 15-23 7-6-2-11-9-15-14-9-10-12-17-6-13-4-16-3-20v-13l3-20 4-15 8-16 9-13 9-10 10-9 20-13 15-8 21-8 28-10 27-9 41-14 36-12 29-10z" fill="#FDFDFD"/>
<path transform="translate(1483,1813)" d="m0 0h20l3 5 6 17 6 20v2l2-1 8-27 6-16h18l5 2 4 57 1 20h-18l-1-2-3-29v-9h-2l-3 9-6 15-3 3h-14l-4-6-6-16-4-4v12l-3 26-1 1h-17l-1-4 4-54 2-20z" fill="#B7B8BA"/>
<path transform="translate(446,1834)" d="m0 0h12l9 5 5-1 9-4h12l8 4 4 7v46l-2 1h-16l-1-1-1-32-2-7-6 1-4 5-1 6-1 27-1 1h-18l-1-1-1-39h-6l-4 4-2 5-1 29-2 2h-18l-1-1v-56h16l4 2h5z" fill="#B7B8BA"/>
<path transform="translate(860,1834)" d="m0 0h10l10 6 4-1 6-4 3-1h12l6 3 5 5 2 12-1 37-1 1h-17l-1-1-2-39-7 1-4 6-1 7v25l-1 1h-19l-1-1v-39h-7l-4 4-2 5-2 31h-20v-56l1-1h15l3 1v2l7-1z" fill="#B7B8BA"/>
<path transform="translate(1055,1834)" d="m0 0h14l9 1h18l1 1v46l-2 15-6 9-8 6-9 3h-17l-10-3-2-2 1-7 3-6 2-1 6 2h14l6-5 1-4-5 1h-17l-7-3-7-8-3-9v-16l4-11 8-7zm9 16-5 2-3 5v10l6 7h9l4-4 1-3v-11l-2-4-5-2z" fill="#B7B8BA"/>
<path transform="translate(1676,1813)" d="m0 0h19l1 4-1 74-1 1h-17l-5-2-7 3h-12l-8-4-7-8-3-7-1-5v-12l4-11 4-6 12-6h13l8 2v-22zm-16 38-5 5-1 3v9l4 8 4 2 7-1 5-5 2-9-2-7-5-5z" fill="#B7B8BA"/>
<path transform="translate(644,1813)" d="m0 0h18l1 7v63l-1 8-1 1h-15l-3-2-4 1-6 2h-11l-8-3-8-9-4-9-1-4v-8l2-9 5-8 7-6 8-3h12l8 1v-20zm-15 38-6 5-1 2v11l3 6 4 3h6l6-4 3-6v-7l-3-6-3-3z" fill="#B7B8BA"/>
<path transform="translate(766,1813)" d="m0 0h48l2 1v15l-1 1h-29l1 14 22 2 2 5v10l-24 1v14h30l1 3v13h-50l-1-1-1-18z" fill="#B7B8BA"/>
<path transform="translate(180,1811)" d="m0 0h8l15 3 7 5 1 3-6 14-3 1-12-6h-8l-4 3 1 5 6 4 16 6 8 6 3 6 1 4v8l-3 7-7 8-7 4-4 1h-16l-11-4-7-5 1-7 6-7 5 1 11 4h7l4-4-2-5-19-9-10-9-3-6-1-7 2-8 5-8 9-6z" fill="#B7B8BA"/>
<path transform="translate(1202,1834)" d="m0 0h13l7 3 5 5 2 7 1 8v24l-1 10-1 1h-17l-1-2-1-33-2-5h-8l-5 5-1 4-1 30-1 1h-19l-1-6v-51h18l2 2h5z" fill="#B7B8BA"/>
<path transform="translate(1818,1834)" d="m0 0h15l9 3 8 7 2 6 1 7v33l-1 2h-16l-3-2-5 1-5 2h-11l-8-4-4-5-2-6v-7l4-7 7-5 5-2 6-1h11l-1-4-6-1-10 3-6 1-6-11 1-4 10-5zm9 34-7 4-1 5 3 2 5-1 4-5-1-4z" fill="#B7B8BA"/>
<path transform="translate(540,1833)" d="m0 0 10 1 10 4 6 7 2 10v28l-1 8-1 1h-15l-2-1v-2l-10 4h-11l-6-3-6-5-2-4v-10l4-6 9-6 10-3 8-1v-3h-10l-8 2h-4l-5-10 1-4 8-4 6-2zm3 35-8 4-1 5 1 1h8l4-5-1-5z" fill="#B7B8BA"/>
<path transform="translate(1351,1834)" d="m0 0h15l10 3 5 4 4 7 2 11v31l-2 2h-16l-5-2-6 3h-12l-8-4-4-5-1-3v-10l4-7 7-5 10-2 11-1-2-5h-9l-10 3-4-1-4-8 1-5 10-5zm8 34-6 3-1 6 2 2 7-1 5-5v-4z" fill="#B7B8BA"/>
<path transform="translate(373,1834)" d="m0 0h14l8 3 7 6 4 8 1 4v12l-1 1h-35l4 6 4 3h8l6-3 3-4 4 2 5 8 1 6-6 4-10 3h-17l-10-4-7-7-5-10-1-5v-7l4-13 7-8 8-4zm5 14-5 4 1 4h9l3-1-1-4-5-3z" fill="#B7B8BA"/>
<path transform="translate(949,1834)" d="m0 0h15l10 5 6 7 3 9v11l-3 2-32 1 2 6 6 2h7l6-3 3-3 4 2 7 10-4 5-8 4-5 1h-18l-10-5-7-7-4-8-1-4v-11l3-10 4-6 10-6zm5 14-5 3-1 4 1 1h12l1-4-5-4z" fill="#B7B8BA"/>
<path transform="translate(1127,1834)" d="m0 0h17l7 3 5 4 4 7 2 6v13l-2 1h-30l-3 2 6 7h11l6-4 4-2 6 9 2 5-7 5-9 3h-16l-11-4-7-6-5-8-2-8 1-11 4-10 4-5 10-6zm8 14-7 3-1 4 2 1h10l2-1-1-5z" fill="#B7B8BA"/>
<path transform="translate(1599,1833)" d="m0 0 10 1 10 5 7 8 2 6v14l-2 1h-32v3l4 5 8 2 7-3 3-3h5l6 9v5l-11 6-5 1h-15l-9-3-8-6-5-8-2-7v-12l4-11 8-8 10-4zm0 16-5 4 1 3 9 1 3-1v-5l-2-2z" fill="#B7B8BA"/>
<path transform="translate(695,1834)" d="m0 0h12l9 3 8 7 4 9 1 4v8l-3 3h-34l4 6 5 3h8l8-5 5 1 5 9-1 5-10 5-4 1h-18l-10-5-8-9-4-10v-10l4-12 7-8 8-4zm3 14-4 4v4l7 1 7-2-2-5-2-2z" fill="#B7B8BA"/>
<path transform="translate(1760,1834)" d="m0 0h18l9 3 6 5-1 5-6 8-5-1-7-3-9 1-5 5-1 3v8l3 6 5 3h7l8-4 4-3 4 2 4 10-2 5-8 4-7 2h-16l-10-4-8-7-5-10-1-5v-7l4-12 7-8z" fill="#B7B8BA"/>
<path transform="translate(1262,1834)" d="m0 0h15l11 4 4 3-1 8-4 6-5-1-9-3-8 1-5 4-1 3v8l3 7 6 3 9-1 7-4 5 1 5 7 1 4-8 6-10 3h-15l-11-4-5-4-6-9-2-6v-13l4-9 7-8 9-5z" fill="#B7B8BA"/>
<path transform="translate(1878,1834)" d="m0 0h15l9 3 3 3-1 8-4 5-16-2v3l14 6 8 8 1 3v8l-3 6-7 6-7 2h-15l-10-4-3-3v-5l6-9 5 2 7 3h8l-4-4-10-4-8-6-3-3-1-3v-10l3-6 5-4z" fill="#B7B8BA"/>
<path transform="translate(1412,1834)" d="m0 0h14l10 3 3 3-1 5-4 8-4 1-8-2h-5l-1 2 11 3 6 4 6 7 2 5v6l-6 9-7 4-3 1h-18l-11-6-1-4 4-7 3-3 5 1 5 3h8l2-3-10-3-9-5-5-5-2-5 1-11 4-6 7-4z" fill="#B7B8BA"/>
<path transform="translate(271,1834)" d="m0 0h12l10 3 3 3-1 9-3 4-11-2h-8l1 3 16 6 5 5 3 5v11l-4 6-5 4-7 2h-14l-10-3-5-6 2-5 4-6 5 1 6 3h10l-4-4-13-6-5-3-4-7v-10l4-6 5-4z" fill="#B7B8BA"/>
<path transform="translate(313,1819)" d="m0 0h16l2 1v15l10 1 2 2 1 13-12 2v16l2 5 9 3 1 3v9l-4 3h-11l-9-4-5-4-3-5-1-4v-23h-5l-2-2-1-11 3-3 5-1 1-15z" fill="#B7B8BA"/>
<path transform="translate(992,1835)" d="m0 0h19l2 2v4l3-1 2-4 4-1h10v17l-1 1-10 2-5 3-2 4-2 29-1 1h-18l-1-1-1-55z" fill="#B7B8BA"/>
<path transform="translate(1708,1835)" d="m0 0h20l1 1v51l-2 5h-17l-1-1-1-10z" fill="#B7B8BA"/>
<path transform="translate(1304,1835)" d="m0 0h19v55l-2 2h-16l-2-4v-52z" fill="#B7B8BA"/>
<path transform="translate(223,1835)" d="m0 0h19l1 1v49l-1 6-2 1h-16l-1-3z" fill="#B7B8BA"/>
<path transform="translate(749,615)" d="m0 0h152l27 4 6 2-4 1-9-2-23-2-155-1v-1z" fill="#B7B8BA"/>
<path transform="translate(1603,1813)" d="m0 0h18l-4 7-8 11-2 1-13-1 1-6 6-11z" fill="#B7B8BA"/>
<path transform="translate(1312,1812)" d="m0 0h7l5 1v13l-1 2h-20v-15z" fill="#B7B8BA"/>
<path transform="translate(1708,1813)" d="m0 0h21l1 3-1 12h-20l-1-1z" fill="#B7B8BA"/>
<path transform="translate(223,1813)" d="m0 0h20v15h-18l-2-1z" fill="#B7B8BA"/>
<path transform="translate(1277,794)" d="m0 0h1l-1 14v49l3 16 3 13 3 9 7 16-1 2-8-16-6-19-3-14-2-27 1-23z" fill="#B7B8BA"/>
<path transform="translate(619,196)" d="m0 0h1v38l2 11 5 15 7 15-1 2-6-10-7-21-2-10-1-20 1-16z" fill="#B7B8BA"/>
<path transform="translate(596,807)" d="m0 0h1l-1 21v17l2 13 3 10-1 4-5-16-2-14v-15z" fill="#B7B8BA"/>
<path transform="translate(1225,797)" d="m0 0 1 3-10 25-5 9-1-3 8-18z" fill="#B7B8BA"/>
<path transform="translate(1217,819)" d="m0 0 1 2-7 13-1-3 5-10z" fill="#B9BABC"/>
</svg>
