<?xml version="1.0" encoding="UTF-8"?>
<svg version="1.1" viewBox="0 0 2000 2000" width="1280" height="1280" xmlns="http://www.w3.org/2000/svg">
<path transform="translate(273,1010)" d="m0 0h1694v529l-3 24-8 27-9 20-8 14-12 17-11 13-10 10-11 9-17 12-23 12-18 7-23 6-29 3h-1684l-1-7 1-527 3-20 9-29 11-23 10-16 13-16 11-12 8-7 12-10 17-11 17-9 24-9 28-6zm206 88-31 3-23 4-25 7-21 9-19 11-13 10-13 12-9 11-10 16-7 15-6 21-2 13v36l4 21 5 15 9 17 8 11 9 10 7 7 13 10 14 9 16 8 23 10 37 14 51 17 18 8 12 7 5 5 4 8 1 3v11l-4 11-7 8-8 6-13 5-16 3-14 1h-14l-24-2-26-6-24-9-25-13-18-12-5 2-9 7-10 9-8 9-6 10-4 11-1 6v22l4 13 5 10 8 10 9 9 15 10 21 10 16 6 31 7 25 3 16 1h45l27-2 21-3 28-7 24-9 19-10 14-10 13-11 12-13 12-18 7-15 6-20 2-13v-39l-2-15-6-21-12-23-8-10-9-10-11-10-17-12-18-11-16-8-22-10-19-7-15-5-50-16-15-7-9-6-4-5-2-6v-12l4-8 5-5 9-6 12-5 12-2 17-1h16l20 1 21 3 29 8 22 9 12 6 16-16 9-14 4-11 3-11v-17l-4-13-7-14-11-12-14-10-19-9-23-7-22-4-25-3-17-1zm872 11-20 3-15 5-10 5-13 9-8 7-3 7-3 38-3 63-5 81-3 57-5 86-3 54-1 16v13l3 14 5 10 5 6 10 6 12 5 24 4h30l33-5 10-3 2-2 1-5 2-40 2-65 3-130 3-75 3-1 4 18 9 31 18 55 16 50 10 32 8 16 9 8 11 5 15 4 8 1 24 1 26-2 21-7 12-7 4-5 6-19 11-36 15-49 12-38 13-45 2-8h3l2 66 1 64 2 51 4 87 2 16 5 12 6 8 8 6 13 6 19 4 8 1h30l25-4 13-5 10-5v-23l-3-46-6-77-5-58-3-35-5-54-4-40-6-59-6-41-5-12-9-10-10-7-11-5-16-5-22-3h-38l-22 3-23 7-9 5-14 39-14 43-14 46-13 44-12 41-6 19-3-3-5-15-15-49-13-41-14-43-13-37-8-18-7-10-8-9-11-8-12-6-15-5-23-3zm-498 3-15 4-10 4-13 10-8 9-6 10-4 11-2 11-1 44v287l1 34 4 16 6 12 8 10 8 7 10 6 13 5 12 2h254l12-4 10-7 7-8 5-11 2-9 1-9v-16l-2-14-5-16-5-12-3-4h-203v-82h154l13-4 10-6 8-9 4-9 3-15v-24l-4-20-5-13-4-8-178-1-1-72h173l11-2 12-6 8-7 6-10 4-17 1-17-2-17-5-18-6-14-1-1z" fill="#1E3F75"/>
<path transform="translate(853,26)" d="m0 0h55l34 2 33 3 39 7 30 8 26 9 18 8 16 8 11 6 15 10 16 12 12 11 8 7 13 14 12 16 10 16 11 21 8 21 6 22 4 25 2 20v27l-2 21-4 22-7 23-8 18-11 18-11 15-9 10-7 8-13 13-11 9-13 10-19 12-12 6-1 2 9 2 25 12 22 13 16 12 10 9 8 7 11 12 14 19 10 18 8 17 6 16 6 22 5 38 1 28-2 25-4 26-5 19-5 15-9 20-10 18-16 23-13 15-20 20-14 11-16 12-20 12-27 14-27 11-24 8-26 7-24 5-31 5-31 3-17 1h-72l-36-2-27-3-39-6-30-7-25-8-20-8-16-8-14-8-13-9-10-8-10-9-11-12-11-17-6-15-3-9-2-13v-26l3-19 7-20 8-15 15-20h2l2-4 7-7 17-13 3-2 7 1 17 11 25 14 28 14 19 8 21 7 28 6 37 4 18 1h28l23-2 27-4 20-6 12-5 13-7 13-10 8-8 9-13 5-10 4-18 1-9v-11l-3-21-4-11-6-11-9-11-12-9-14-7-20-6-27-4-14-1-161-1-5-8-9-19-6-19-3-12-2-17v-48l3-22 6-22 8-19 7-11 1-1 156-1 22-2 19-5 14-6 11-7 9-8 8-12 5-12 3-16v-24l-4-17-8-14-9-10-10-9-17-10-18-7-37-7-11-1h-50l-27 3-31 5-32 9-21 8-18 8-23 13-3 3-4-2-10-8-11-10-7-8-11-15-8-16-4-10-4-19-1-8v-21l4-22 5-14 6-12 7-10 12-13 11-10 15-10 15-8 25-10 22-7 28-7 35-6 18-2 32-2z" fill="#1D3E74"/>
<path transform="translate(1575,32)" d="m0 0h47l39 3 26 3 26 5 28 7 32 11 25 11 22 11 24 15 17 13 11 9 15 14 13 14 15 20 9 15 8 14 10 24 7 22 6 29 2 17v44l-3 21-5 25-6 20-8 22-8 18-12 22-13 21-13 18-14 18-11 12-7 8-9 10-23 23-8 7-12 11-11 9-13 11-14 11-11 9-14 11-16 13-10 8-14 11-17 14-28 22-12 10-10 8-14 11-17 14-14 11-5 4 357 1 5 8 10 25 7 23 3 21v39l-3 21-6 17-6 11-9 10-9 8-15 8-17 5-7 1h-535l-14-11-16-16-10-13-8-13-8-16-8-24-3-16-1-9v-43l2-18 6-22 8-19 10-16 8-12 9-11 11-12 10-10 11-9 11-10 11-9 56-48 13-11 28-24 15-13 11-9 10-9 11-9 10-9 11-9 30-26 13-12 16-14 20-20 7-8 8-8 9-11 11-13 11-16 8-14 7-16 5-21v-20l-5-19-8-15-11-12-12-9-14-8-19-8-28-6-15-2h-34l-25 3-29 5-29 9-29 12-17 8-20 11-10 6-8 4-13-11-15-15-11-15-10-19-6-19-2-13v-32l3-18 7-20 9-16 11-14 11-11 13-10 15-9 16-8 16-7 21-7 23-6 32-6 38-4z" fill="#1D3E74"/>
<path transform="translate(309,37)" d="m0 0h67l20 2 24 6 18 8 13 8 10 8 7 6 7 8 10 14 10 21 6 21 2 10 1 14v793l-37 7-40 5-31 2h-16l-29-2-29-4-17-6-15-8-11-9-8-9-8-13-5-11-3-9-4-20-1-8-1-559 1-21-40 12-68 21-38 12h-6l-16-13-13-12-11-12-11-15-7-15-4-14-3-23v-23l4-24 6-16 9-16 9-11 14-14 19-13 23-12 26-10 48-16 26-9 36-12 47-16z" fill="#1D3E74"/>
<path transform="translate(1514,1866)" d="m0 0h19l3 1 7 19 8 25v4h2l4-16 11-31 1-1h23l4 55 2 19v10h-20l-1-2-3-44-1-1-8 24-4 9h-17l-4-8-10-27-1 23-2 25-1 1h-19l-1-4 5-55 2-25z" fill="#234377"/>
<path transform="translate(855,1888)" d="m0 0 8 1 6 4 3 3v2l15-9 9-1 8 3 5 4 4 9v46l-1 1h-19l-1-1-1-43-9 2-4 5-1 4v31l-1 2h-20l-1-3v-33l-1-7h-6l-6 5-1 2-1 35-1 1h-20v-61h19l2 5 5-2 6-4z" fill="#27467A"/>
<path transform="translate(417,1888)" d="m0 0 8 1 12 8 8-6 8-3 9 1 8 5 4 6 1 4v47h-20l-1-38-1-5h-6l-6 5-2 6v30l-1 2h-19l-1-1-1-39-1-3h-6l-6 5-1 3-1 34-1 1h-19l-1-1v-59l1-1h18l1 1v6l12-8z" fill="#27467A"/>
<path transform="translate(1064,1888)" d="m0 0 10 1 8 4 3-3h17l1 1v59l-3 9-4 6-7 6-7 3-5 1h-18l-12-3-1-5 5-11 2-1 6 2 11 1 9-3 3-5 1-5-12 4h-9l-11-4-7-8-4-9-1-5v-8l3-10 5-8 8-6zm3 18-6 5-1 2v10l4 6 5 3 9-1 4-5 1-10-3-7-4-3z" fill="#244478"/>
<path transform="translate(622,1866)" d="m0 0 20 1v84h-19v-6l-8 6-4 1h-12l-8-3-7-7-5-10-1-3v-17l4-10 7-8 10-5 9-1 10 3 4 2-1-4v-22zm-14 40-6 3-3 4-1 10 3 8 5 4 7 1 6-4 3-6v-10l-3-7-6-3z" fill="#224277"/>
<path transform="translate(1718,1867)" d="m0 0h21v82l-1 2h-18l-1-6-7 6-5 1h-10l-9-3-6-5-7-14v-17l4-11 7-8 10-5h14l9 4-1-3zm-15 39-5 4-3 5v10l3 6 6 5h6l7-6 2-5v-9l-3-6-5-4z" fill="#244478"/>
<path transform="translate(752,1867)" d="m0 0h53v17h-32v16h25l1 1v15l-1 1h-25l1 15 32 1 1 1v16l-1 1h-53l-1-3z" fill="#254479"/>
<path transform="translate(130,1865)" d="m0 0h12l11 3 9 6-3 9-4 8-5-2-12-4h-6l-5 3v5l10 6 16 7 6 5 5 10v11l-5 10-8 7-10 3h-14l-13-4-9-6-1-3 7-10 2-4 15 6 10 1 5-3-1-5-16-8-11-6-7-8-3-10 2-10 5-8 8-6z" fill="#234378"/>
<path transform="translate(1216,1889)" d="m0 0h14l8 4 4 5 2 9v43l-1 1h-18l-1-1-1-39-1-2-7-1-5 2-4 5-1 18v16l-1 2h-20l-1-59 1-2h18l4 6 6-5z" fill="#224277"/>
<path transform="translate(1876,1888)" d="m0 0 11 1 9 4 5 5 3 4 2 8v40l-1 1h-18l-1-5-6 5-4 1h-12l-8-4-5-6-2-6v-7l3-6 8-6 16-4 10-1-2-5-8-1-13 4-3 1-7-12v-3l11-5zm4 36-9 4-1 1 1 7 1 1h6l6-5 2-6-2-2z" fill="#27477A"/>
<path transform="translate(511,1888)" d="m0 0 11 1 9 4 6 5 4 9v43l-1 1h-17v-6l-8 6-3 1h-12l-7-3-7-8-2-5 1-8 4-6 5-4 11-4 7-1h8l-2-6-6-1-14 4-4-1-5-9 1-5 16-6zm4 36-9 4-1 1v5l3 3 7-1 5-5v-7z" fill="#27477A"/>
<path transform="translate(1382,1888)" d="m0 0 10 1 10 5 6 7 2 5v45h-18l-1-6-5 5-5 2h-11l-8-3-6-7-2-5v-9l6-8 10-5 19-3-1-4-4-2-12 2-5 2-4-1-5-9 1-5 16-6zm4 36-10 3-2 2 1 6 2 2 7-1 5-5 2-6z" fill="#254579"/>
<path transform="translate(1636,1888)" d="m0 0h9l10 4 8 7 4 9 1 5v10l-1 1-38 1 4 6 7 4h7l10-5 5 1 5 9-1 5-12 6-6 1h-14l-11-4-8-7-6-12-1-3v-11l4-11 9-10 11-5zm0 16-6 5 1 4h15l2-1-2-5-4-3z" fill="#244478"/>
<path transform="translate(946,1889)" d="m0 0h16l10 5 6 7 4 10 1 10-3 3h-36v3l7 7 3 1h8l12-6 6 9 1 6-10 6-9 2h-14l-9-3-9-7-6-10-2-8v-8l4-12 9-10zm4 15-5 4-1 4 1 1h16l1-2-3-5-2-2z" fill="#254579"/>
<path transform="translate(1137,1889)" d="m0 0h15l9 4 5 4 5 9 2 7v10l-1 1-38 1 4 6 6 4h8l10-5 5 1 5 11-1 3-12 6-6 1h-14l-9-3-6-4-6-7-4-8-1-4v-12l5-12 6-7 10-5zm4 15-6 5 1 4h16v-4l-5-5z" fill="#254579"/>
<path transform="translate(335,1889)" d="m0 0h15l9 4 5 4 6 12 1 4v10l-1 1h-37v3l5 6 4 2h8l12-6 3 3 4 8 1 3-3 3-10 5-7 1h-13l-10-3-10-9-4-8-2-8 1-13 4-9 6-7 9-5zm4 15-6 5 1 4h11l6-1-3-5-3-3z" fill="#264679"/>
<path transform="translate(677,1889)" d="m0 0h14l8 3 8 7 4 9 1 4v11l-1 1h-38l4 6 4 4 3 1h8l9-5 5 1 5 9-1 5-12 6-6 1h-14l-11-4-7-6-5-8-3-9v-10l5-12 7-8 9-5zm3 15-5 4-1 4 1 1h16l2-2-5-6-2-1z" fill="#254579"/>
<path transform="translate(1816,1888)" d="m0 0 11 1 12 5 4 5-8 12-5-2-6-2h-9l-5 3-4 6v8l4 7 4 3 10 1 13-7 3 3 4 9-1 4-10 6-8 2h-14l-10-3-9-7-5-8-3-11 1-10 4-9 7-8 14-7z" fill="#254479"/>
<path transform="translate(1287,1888)" d="m0 0 12 2 12 6v4l-6 10-4 1-8-4h-9l-5 3-3 5v10l3 5 5 4 9 1 11-6h3l7 12-1 3-13 7-6 1h-14l-10-3-10-9-5-10-1-4v-11l4-11 8-9 11-5z" fill="#234378"/>
<path transform="translate(1938,1888)" d="m0 0 12 1 10 4 3 2-1 4-5 10-7-1-3-1-11-1 2 4 17 7 5 4 4 6 1 8-4 8-8 7-7 2h-12l-9-2-8-5-2-3 8-12 5 1 4 3 12 2v-5l-9-3-11-6-6-7-2-5 1-7 4-7 10-6z" fill="#28477A"/>
<path transform="translate(1443,1888)" d="m0 0 12 1 10 4 3 3-2 5-5 8-9-2h-11l4 4 13 5 9 8 2 5v8l-3 6-7 6-9 3h-12l-8-2-9-5-1-3 7-11 4-1 8 5 10 1-2-5-13-6-9-6-3-6-1-7 3-8 7-6 7-3z" fill="#26467A"/>
<path transform="translate(230,1888)" d="m0 0 11 1 12 5 1 4-6 11-9-2-11-1 2 4 16 7 7 6 3 6v7l-3 6-4 5-7 4-4 1h-14l-10-3-7-5 1-4 4-6 1-3 4-1 9 5 10 1-2-5-14-6-8-6-3-5-1-8 2-6 6-7 9-4z" fill="#28477A"/>
<path transform="translate(270,1874)" d="m0 0h21l-1 17 13 1v15l-6 1h-7l1 23 11 2 2 2v15l-1 1h-14l-9-3-8-7-2-5v-28l-7-1-1-1v-13l7-2z" fill="#224277"/>
<path transform="translate(1030,1888)" d="m0 0 4 1 1 6v13l-1 1-11 2-6 4-2 5-1 30-1 1h-19l-1-1v-60h18l2 1v9l5-5 10-6z" fill="#2C4B7D"/>
<path transform="translate(1324,1890)" d="m0 0h19l1 1v60h-21v-60z" fill="#2C4B7D"/>
<path transform="translate(177,1890)" d="m0 0h19l1 3v56l-1 2h-20l-1-58z" fill="#29487B"/>
<path transform="translate(1754,1890)" d="m0 0h20l1 59-1 2h-20z" fill="#224277"/>
<path transform="translate(1324,1866)" d="m0 0 20 1v15l-1 1h-20v-16z" fill="#28487B"/>
<path transform="translate(176,1866)" d="m0 0 20 1 1 4-1 12h-20z" fill="#224277"/>
<path transform="translate(1755,1866)" d="m0 0 19 1v16h-20v-16z" fill="#204076"/>
<path transform="translate(1655,1866)" d="m0 0 5 1-2 4-7 9-4 4-15 1 1-5 7-13z" fill="#2D4C7E"/>
</svg>
